<svg width="24" height="25" viewBox="0 0 24 25" fill="none" xmlns="http://www.w3.org/2000/svg">
<path fill-rule="evenodd" clip-rule="evenodd" d="M4 20.3955H20V8.39551H4V20.3955ZM4 7.39551H20V4.39551H4V7.39551ZM21 2.39551H3C2.447 2.39551 2 2.84351 2 3.39551V21.3955C2 21.9475 2.447 22.3955 3 22.3955H21C21.553 22.3955 22 21.9475 22 21.3955V3.39551C22 2.84351 21.553 2.39551 21 2.39551Z" fill="white"/>
<path fill-rule="evenodd" clip-rule="evenodd" d="M17 5.89551C17 6.17151 16.776 6.39551 16.5 6.39551C16.224 6.39551 16 6.17151 16 5.89551C16 5.61951 16.224 5.39551 16.5 5.39551C16.776 5.39551 17 5.61951 17 5.89551ZM19 5.89551C19 6.17151 18.776 6.39551 18.5 6.39551C18.224 6.39551 18 6.17151 18 5.89551C18 5.61951 18.224 5.39551 18.5 5.39551C18.776 5.39551 19 5.61951 19 5.89551Z" fill="white"/>
<path fill-rule="evenodd" clip-rule="evenodd" d="M6.5 11.3955H13.5C13.776 11.3955 14 11.1715 14 10.8955C14 10.6195 13.776 10.3955 13.5 10.3955H6.5C6.224 10.3955 6 10.6195 6 10.8955C6 11.1715 6.224 11.3955 6.5 11.3955ZM6.5 13.3955H11.5C11.776 13.3955 12 13.1715 12 12.8955C12 12.6195 11.776 12.3955 11.5 12.3955H6.5C6.224 12.3955 6 12.6195 6 12.8955C6 13.1715 6.224 13.3955 6.5 13.3955ZM6.5 14.3955H9.5C9.776 14.3955 10 14.6195 10 14.8955C10 15.1715 9.776 15.3955 9.5 15.3955H6.5C6.224 15.3955 6 15.1715 6 14.8955C6 14.6195 6.224 14.3955 6.5 14.3955ZM8.5 16.3955H6.5C6.224 16.3955 6 16.6195 6 16.8955C6 17.1715 6.224 17.3955 6.5 17.3955H8.5C8.776 17.3955 9 17.1715 9 16.8955C9 16.6195 8.776 16.3955 8.5 16.3955ZM6.5 18.3955H8.5C8.776 18.3955 9 18.6195 9 18.8955C9 19.1715 8.776 19.3955 8.5 19.3955H6.5C6.224 19.3955 6 19.1715 6 18.8955C6 18.6195 6.224 18.3955 6.5 18.3955Z" fill="white"/>
<path fill-rule="evenodd" clip-rule="evenodd" d="M17.047 13.6415L15.754 12.3485L16.5 11.6025L17.793 12.8955L17.047 13.6415ZM12.293 18.3955H11V17.1025L15.047 13.0555L16.34 14.3485L12.293 18.3955ZM16.854 10.5415C16.658 10.3465 16.342 10.3465 16.147 10.5415L10.147 16.5415C10.053 16.6355 10 16.7625 10 16.8955V18.8955C10 19.1715 10.224 19.3955 10.5 19.3955H12.5C12.633 19.3955 12.76 19.3425 12.854 19.2485L18.854 13.2485C19.049 13.0535 19.049 12.7375 18.854 12.5415L16.854 10.5415Z" fill="white"/>
</svg>
