<svg width="24" height="24" viewBox="0 0 24 24" fill="none" xmlns="http://www.w3.org/2000/svg">
<path fill-rule="evenodd" clip-rule="evenodd" d="M15.997 20H8V4H16L15.997 20ZM16 2H8C6.897 2 6 2.897 6 4V20C6 21.103 6.897 22 8 22H16C17.102 22 18 21.103 18 20V4C18 2.897 17.102 2 16 2ZM11.9999 17C11.4469 17 10.9999 17.448 10.9999 18C10.9999 18.552 11.4469 19 11.9999 19C12.5529 19 12.9999 18.552 12.9999 18C12.9999 17.448 12.5529 17 11.9999 17ZM10.4999 6H13.4999C13.7759 6 13.9999 5.776 13.9999 5.5C13.9999 5.224 13.7759 5 13.4999 5H10.4999C10.2239 5 9.9999 5.224 9.9999 5.5C9.9999 5.776 10.2239 6 10.4999 6Z" fill="white"/>
</svg>
