<svg width="24" height="25" viewBox="0 0 24 25" fill="none" xmlns="http://www.w3.org/2000/svg">
<path fill-rule="evenodd" clip-rule="evenodd" d="M14.1008 16.0312C14.3288 14.8593 14.9238 13.9602 15.5088 13.0892C16.2758 11.9482 16.9998 10.8702 16.9998 9.03125C16.9998 6.27525 14.7568 4.03125 11.9998 4.03125C9.2428 4.03125 6.9998 6.27525 6.9998 9.03125C6.9998 10.8702 7.7238 11.9482 8.4908 13.0892C9.0768 13.9602 9.6718 14.8593 9.8988 16.0312H14.1008ZM4.9998 9.03125C4.9998 5.17225 8.1398 2.03125 11.9998 2.03125C15.8598 2.03125 18.9998 5.17225 18.9998 9.03125C18.9998 11.4802 17.9848 12.9913 17.1688 14.2052C16.5158 15.1762 15.9998 15.9443 15.9998 17.0312C15.9998 17.5842 15.5518 18.0312 14.9998 18.0312H8.9998C8.4478 18.0312 7.9998 17.5842 7.9998 17.0312C7.9998 15.9443 7.4848 15.1762 6.8308 14.2052L6.82841 14.2017C6.01381 12.9883 4.9998 11.4779 4.9998 9.03125ZM10.5 21.0317H13.5C13.776 21.0317 14 21.2557 14 21.5317C14 21.8076 13.776 22.0317 13.5 22.0317H10.5C10.224 22.0317 10 21.8076 10 21.5317C10 21.2557 10.224 21.0317 10.5 21.0317ZM14.5 19.0317H9.5C9.224 19.0317 9 19.2557 9 19.5317C9 19.8076 9.224 20.0317 9.5 20.0317H14.5C14.776 20.0317 15 19.8076 15 19.5317C15 19.2557 14.776 19.0317 14.5 19.0317ZM18.5 4.03165C18.628 4.03165 18.756 3.98265 18.854 3.88565L19.854 2.88565C20.049 2.68965 20.049 2.37365 19.854 2.17765C19.658 1.98265 19.342 1.98265 19.146 2.17765L18.146 3.17765C17.951 3.37365 17.951 3.68965 18.146 3.88565C18.244 3.98265 18.372 4.03165 18.5 4.03165ZM5.1465 3.88515C5.2445 3.98315 5.3725 4.03115 5.5005 4.03115C5.6275 4.03115 5.7555 3.98315 5.8535 3.88515C6.0485 3.69015 6.0485 3.37315 5.8535 3.17815L4.8535 2.17815C4.6585 1.98315 4.3415 1.98315 4.1465 2.17815C3.9515 2.37315 3.9515 2.69015 4.1465 2.88515L5.1465 3.88515ZM18.1465 15.8852C17.9515 15.6902 17.9515 15.3732 18.1465 15.1782C18.3415 14.9832 18.6585 14.9832 18.8535 15.1782L19.8535 16.1782C20.0485 16.3732 20.0485 16.6902 19.8535 16.8852C19.7555 16.9832 19.6275 17.0322 19.4995 17.0322C19.3725 17.0322 19.2445 16.9832 19.1465 16.8852L18.1465 15.8852ZM5.1465 15.1782L4.1465 16.1782C3.9515 16.3732 3.9515 16.6902 4.1465 16.8852C4.2445 16.9832 4.3725 17.0322 4.5005 17.0322C4.6275 17.0322 4.7555 16.9832 4.8535 16.8852L5.8535 15.8852C6.0485 15.6902 6.0485 15.3732 5.8535 15.1782C5.6585 14.9832 5.3415 14.9832 5.1465 15.1782ZM20.5 9.03165H21.5C21.776 9.03165 22 9.25565 22 9.53165C22 9.80765 21.776 10.0317 21.5 10.0317H20.5C20.224 10.0317 20 9.80765 20 9.53165C20 9.25565 20.224 9.03165 20.5 9.03165ZM3.5 9.03165H2.5C2.224 9.03165 2 9.25565 2 9.53165C2 9.80765 2.224 10.0317 2.5 10.0317H3.5C3.776 10.0317 4 9.80765 4 9.53165C4 9.25565 3.776 9.03165 3.5 9.03165Z" fill="white"/>
</svg>
