<svg width="348" height="598" xmlns="http://www.w3.org/2000/svg" fill="none">
 <g>
  <title>Layer 1</title>
  <path id="svg_16" fill="#36DA8B" d="m262.828,494.17l27.754,27.76l-75.808,75.84l-27.754,-27.76l75.808,-75.84z" clip-rule="evenodd" fill-rule="evenodd"/>
  <path id="svg_17" fill="#4D00A8" d="m261.037,450l10.787,10.79l-39.949,39.97l-10.787,-10.79l39.949,-39.97z" clip-rule="evenodd" fill-rule="evenodd"/>
  <path id="svg_18" fill="#FF41EA" d="m15.03493,377.46807l7.521,7.53l-36.58,36.59l-7.522,-7.52l36.581,-36.6z" clip-rule="evenodd" fill-rule="evenodd"/>
  <path id="svg_19" fill="#4D00A8" d="m29.21311,309.07789l19.33,19.34l-57.275,57.3l-19.33,-19.34l57.275,-57.3z" clip-rule="evenodd" fill-rule="evenodd"/>
  <path id="svg_20" fill="#4D00A8" d="m304,81.5l57,-58.5l0,117l-57,-58.5z" clip-rule="evenodd" fill-rule="evenodd"/>
  <path id="svg_21" fill="#FFBC00" d="m14,64.5l-14,-14.5l0,29l14,-14.5z" clip-rule="evenodd" fill-rule="evenodd"/>
  <path stroke="null" id="svg_22" fill="#36DA8B" d="m23,236.35807l-27,-28.5l0,57l27,-28.5z" clip-rule="evenodd" fill-rule="evenodd"/>
  <path id="svg_23" fill="#FFBD00" d="m275.938,482.69c0,3.87 -3.137,7 -7,7c-3.864,0 -7,-3.13 -7,-7c0,-3.86 3.136,-7 7,-7c3.863,0 7,3.14 7,7" clip-rule="evenodd" fill-rule="evenodd"/>
  <path id="svg_24" fill="#FF41EA" d="m331,118.5c0,4.13824 -3.36,7.5 -7.5,7.5c-4.14,0 -7.5,-3.36176 -7.5,-7.5c0,-4.13824 3.36,-7.5 7.5,-7.5c4.14,0 7.5,3.36176 7.5,7.5z" clip-rule="evenodd" fill-rule="evenodd" stroke="null"/>
  <path stroke="null" id="svg_25" fill="#4D00A5" d="m21.41843,259.5212c0,3.59 -2.688,6.5 -6,6.5c-3.312,0 -6,-2.91 -6,-6.5c0,-3.59 2.688,-6.5 6,-6.5c3.312,0 6,2.91 6,6.5" clip-rule="evenodd" fill-rule="evenodd"/>
 </g>
</svg>