<svg width="1441" height="945" xmlns="http://www.w3.org/2000/svg" fill="none">
 <g>
  <title>Layer 1</title>
  <path fill-rule="evenodd" clip-rule="evenodd" d="m1349.92853,212.99981l108,-108l0,216l-108,-108z" fill="#4D00A8" id="svg_2"/>
  <path fill-rule="evenodd" clip-rule="evenodd" d="m36.47936,176.99981l-36,-36l0,72l36,-36z" fill="#FFBC00" id="svg_3"/>
  <path fill-rule="evenodd" clip-rule="evenodd" d="m72.47936,500.99981l-72,-72l0,144l72,-72z" fill="#36DA8B" id="svg_4"/>
  <path fill-rule="evenodd" clip-rule="evenodd" d="m1074.57224,689.85378l62.22,62.25l-169.96,170.028l-62.225,-62.25l169.965,-170.028z" fill="#36DA8B" id="svg_5"/>
  <path fill-rule="evenodd" clip-rule="evenodd" d="m1104.60667,523.7416l24.19,24.194l-89.57,89.603l-24.19,-24.194l89.57,-89.603z" fill="#4D00A8" id="svg_6"/>
  <path fill-rule="evenodd" clip-rule="evenodd" d="m821.84436,19.99981l24.185,24.194l-89.568,89.603l-24.184,-24.194l89.567,-89.603z" fill="#FF41EA" id="svg_7"/>
  <path fill-rule="evenodd" clip-rule="evenodd" d="m206.84436,647.91981l15.009,15.014l-72.991,73.02l-15.008,-15.015l72.99,-73.019z" fill="#FF41EA" id="svg_8"/>
  <path fill-rule="evenodd" clip-rule="evenodd" d="m785.46936,133.20781l7.937,7.94l-39.755,39.771l-7.937,-7.94l39.755,-39.771z" fill="#FFBC00" id="svg_9"/>
  <path fill-rule="evenodd" clip-rule="evenodd" d="m245.55136,499.04281l38.57,38.585l-114.283,114.329l-38.57,-38.585l114.283,-114.329z" fill="#4D00A8" id="svg_10"/>
  <path fill-rule="evenodd" clip-rule="evenodd" d="m1391.41549,278.75867c0,8.832 -7.17,16 -16,16c-8.83,0 -16,-7.168 -16,-16c0,-8.832 7.17,-16 16,-16c8.83,0 16,7.168 16,16" fill="#FF41EA" id="svg_11"/>
  <path fill-rule="evenodd" clip-rule="evenodd" d="m1126.57396,602.30161c0,8.832 -7.17,16 -16,16c-8.83,0 -16,-7.168 -16,-16c0,-8.832 7.17,-16 16,-16c8.83,0 16,7.168 16,16" fill="#FFBD00" id="svg_12"/>
  <path fill-rule="evenodd" clip-rule="evenodd" d="m866.47936,16.99981c0,8.832 -7.168,16 -16,16c-8.832,0 -16,-7.168 -16,-16c0,-8.832 7.168,-16 16,-16c8.832,0 16,7.168 16,16" fill="#36DA8B" id="svg_13"/>
 </g>

</svg>